<?xml version="1.0" encoding="UTF-8" standalone="no"?>
<!-- Created with Inkscape (http://www.inkscape.org/) -->

<svg
   width="1024"
   height="1024"
   viewBox="0 0 1024 1024"
   version="1.1"
   id="svg1"
   inkscape:version="1.4.4 (dcaf3e7d9e, 2026-05-05)"
   sodipodi:docname="NetworkPuzzles.svg"
   inkscape:export-filename="NetworkPuzzles.png"
   inkscape:export-xdpi="47.813229"
   inkscape:export-ydpi="47.813229"
   xmlns:inkscape="http://www.inkscape.org/namespaces/inkscape"
   xmlns:sodipodi="http://sodipodi.sourceforge.net/DTD/sodipodi-0.dtd"
   xmlns:xlink="http://www.w3.org/1999/xlink"
   xmlns="http://www.w3.org/2000/svg"
   xmlns:svg="http://www.w3.org/2000/svg">
  <sodipodi:namedview
     id="namedview1"
     pagecolor="#ffffff"
     bordercolor="#000000"
     borderopacity="0.25"
     inkscape:showpageshadow="2"
     inkscape:pageopacity="0.0"
     inkscape:pagecheckerboard="0"
     inkscape:deskcolor="#d1d1d1"
     inkscape:document-units="px"
     inkscape:zoom="0.64"
     inkscape:cx="478.90625"
     inkscape:cy="519.53125"
     inkscape:window-width="1854"
     inkscape:window-height="1011"
     inkscape:window-x="0"
     inkscape:window-y="0"
     inkscape:window-maximized="1"
     inkscape:current-layer="layer4"
     showguides="true"
     showgrid="true">
    <sodipodi:guide
       position="-257.47708,516.03824"
       orientation="0,-1"
       id="guide1"
       inkscape:locked="false" />
    <sodipodi:guide
       position="512.07098,1070.5488"
       orientation="1,0"
       id="guide2"
       inkscape:locked="false" />
    <inkscape:grid
       id="grid5"
       units="px"
       originx="0"
       originy="0"
       spacingx="1"
       spacingy="1"
       empcolor="#0099e5"
       empopacity="0.30196078"
       color="#0099e5"
       opacity="0.14901961"
       empspacing="5"
       enabled="true"
       visible="true" />
  </sodipodi:namedview>
  <defs
     id="defs1">
    <inkscape:perspective
       sodipodi:type="inkscape:persp3d"
       inkscape:vp_x="-1311.424 : -2.3365897e-13 : 0"
       inkscape:vp_y="14.612408 : 1220.8133 : 0"
       inkscape:vp_z="1820.8345 : 999.2915 : 1"
       inkscape:persp3d-origin="702.16511 : -96.188653 : 1"
       id="perspective47" />
    <linearGradient
       id="linearGradient22"
       inkscape:collect="always">
      <stop
         style="stop-color:#2ec27e;stop-opacity:1;"
         offset="0"
         id="stop21" />
      <stop
         style="stop-color:#cccccc;stop-opacity:1;"
         offset="1"
         id="stop22" />
    </linearGradient>
    <linearGradient
       id="linearGradient20"
       inkscape:collect="always">
      <stop
         style="stop-color:#2ec27e;stop-opacity:1;"
         offset="0"
         id="stop19" />
      <stop
         style="stop-color:#cccccc;stop-opacity:1;"
         offset="1"
         id="stop20" />
    </linearGradient>
    <linearGradient
       id="linearGradient18"
       inkscape:collect="always">
      <stop
         style="stop-color:#2ec27e;stop-opacity:1;"
         offset="0"
         id="stop17" />
      <stop
         style="stop-color:#cccccc;stop-opacity:1;"
         offset="1"
         id="stop18" />
    </linearGradient>
    <linearGradient
       id="linearGradient2"
       inkscape:collect="always">
      <stop
         style="stop-color:#2ec27e;stop-opacity:1;"
         offset="0"
         id="stop3" />
      <stop
         style="stop-color:#cccccc;stop-opacity:1;"
         offset="1"
         id="stop4" />
    </linearGradient>
    <linearGradient
       id="swatch2"
       inkscape:swatch="solid">
      <stop
         style="stop-color:#cccccc;stop-opacity:1;"
         offset="0"
         id="stop2" />
    </linearGradient>
    <linearGradient
       inkscape:collect="always"
       xlink:href="#linearGradient18"
       id="linearGradient4"
       x1="437.01935"
       y1="74.980667"
       x2="74.980659"
       y2="437.01935"
       gradientUnits="userSpaceOnUse" />
    <linearGradient
       inkscape:collect="always"
       xlink:href="#linearGradient20"
       id="linearGradient15"
       gradientUnits="userSpaceOnUse"
       x1="437.01935"
       y1="74.980667"
       x2="74.980659"
       y2="437.01935"
       gradientTransform="rotate(90,511.01575,512.29796)" />
    <linearGradient
       inkscape:collect="always"
       xlink:href="#linearGradient22"
       id="linearGradient16"
       gradientUnits="userSpaceOnUse"
       x1="437.01935"
       y1="74.980667"
       x2="74.980659"
       y2="437.01935"
       gradientTransform="rotate(180,512.11281,512.1518)" />
    <linearGradient
       inkscape:collect="always"
       xlink:href="#linearGradient2"
       id="linearGradient17"
       gradientUnits="userSpaceOnUse"
       gradientTransform="rotate(-90,511.96665,511.05473)"
       x1="437.01935"
       y1="74.980667"
       x2="74.980659"
       y2="437.01935" />
    <inkscape:perspective
       sodipodi:type="inkscape:persp3d"
       inkscape:vp_x="-1257.8452 : -1.6301656e-13 : 0"
       inkscape:vp_y="14.01541 : 851.72325 : 0"
       inkscape:vp_z="-914.76003 : 1272.2763 : 1"
       inkscape:persp3d-origin="317.80979 : 470.91421 : 1"
       id="perspective47-7" />
    <inkscape:perspective
       sodipodi:type="inkscape:persp3d"
       inkscape:vp_x="-1257.8452 : -1.6301656e-13 : 0"
       inkscape:vp_y="14.01541 : 851.72325 : 0"
       inkscape:vp_z="-1030.106 : 1377.0176 : 1"
       inkscape:persp3d-origin="202.46384 : 575.6555 : 1"
       id="perspective47-7-0" />
    <inkscape:perspective
       sodipodi:type="inkscape:persp3d"
       inkscape:vp_x="-1311.9657 : -1.6303112e-13 : 0"
       inkscape:vp_y="14.618444 : 851.79938 : 0"
       inkscape:vp_z="1908.5543 : 1209.3685 : 1"
       inkscape:persp3d-origin="789.42272 : 445.01801 : 1"
       id="perspective47-3" />
  </defs>
  <g
     inkscape:label="guides"
     inkscape:groupmode="layer"
     id="layer1"
     style="display:none"
     sodipodi:insensitive="true">
    <rect
       style="display:inline;fill:#000000;fill-opacity:0;fill-rule:evenodd;stroke:#000000;stroke-width:0.997085;stroke-dasharray:none;stroke-opacity:1"
       id="rect1"
       width="1023.0029"
       height="1023.0029"
       x="0.49853882"
       y="0.49853882"
       rx="179.29961"
       ry="179.29961" />
  </g>
  <g
     inkscape:groupmode="layer"
     id="layer2"
     inkscape:label="border"
     style="display:none"
     sodipodi:insensitive="true" />
  <g
     inkscape:groupmode="layer"
     id="layer3"
     inkscape:label="puzzle"
     style="display:inline"
     sodipodi:insensitive="true">
    <path
       d="M 180.94336,4.9082031 C 83.421236,4.9082031 4.9082031,83.421236 4.9082031,180.94336 V 507.0918 H 137.99805 V 483.99805 A 59.362316,59.362316 0 0 1 110.63672,434 59.362316,59.362316 0 0 1 170,374.63672 59.362316,59.362316 0 0 1 229.36328,434 59.362316,59.362316 0 0 1 202.00195,483.99805 V 507.0918 H 507.0918 V 202.06445 h 34.94922 A 59.362316,59.362316 0 0 0 592,229.36328 59.362316,59.362316 0 0 0 651.36328,170 59.362316,59.362316 0 0 0 592,110.63672 59.362316,59.362316 0 0 0 542.04102,137.93555 H 507.0918 V 4.9082031 Z"
       style="fill:url(#linearGradient4);fill-rule:evenodd;stroke:#cccccc;stroke-width:9.8178;stroke-linejoin:round"
       id="path15" />
    <path
       d="M 1018.4055,182.22556 C 1018.4055,84.703434 939.89247,6.1904042 842.37035,6.1904042 H 516.22191 V 139.28025 h 23.09375 a 59.362316,59.362316 0 0 1 49.99805,-27.36133 59.362316,59.362316 0 0 1 59.36328,59.36328 59.362316,59.362316 0 0 1 -59.36328,59.36328 59.362316,59.362316 0 0 1 -49.99805,-27.36133 H 516.22191 V 508.374 h 305.02735 v 34.94922 a 59.362316,59.362316 0 0 0 -27.29883,49.95898 59.362316,59.362316 0 0 0 59.36328,59.36328 59.362316,59.362316 0 0 0 59.36328,-59.36328 59.362316,59.362316 0 0 0 -27.29883,-49.95898 V 508.374 h 133.02734 z"
       style="display:inline;fill:url(#linearGradient15);fill-rule:evenodd;stroke:#cccccc;stroke-width:9.8178;stroke-linejoin:round"
       id="path15-2" />
    <path
       d="m 843.28227,1019.3954 c 97.52212,0 176.03513,-78.51303 176.03513,-176.03516 V 517.2118 H 886.22758 v 23.09375 a 59.362316,59.362316 0 0 1 27.36133,49.99805 59.362316,59.362316 0 0 1 -59.36328,59.36328 59.362316,59.362316 0 0 1 -59.36328,-59.36328 59.362316,59.362316 0 0 1 27.36133,-49.99805 V 517.2118 H 517.13383 v 305.02735 h -34.94922 a 59.362316,59.362316 0 0 0 -49.95898,-27.29883 59.362316,59.362316 0 0 0 -59.36328,59.36328 59.362316,59.362316 0 0 0 59.36328,59.36328 59.362316,59.362316 0 0 0 49.95898,-27.29883 h 34.94922 v 133.02735 z"
       style="display:inline;fill:url(#linearGradient16);fill-rule:evenodd;stroke:#cccccc;stroke-width:9.8178;stroke-linejoin:round"
       id="path15-28" />
    <path
       d="m 5.8201286,842.07804 c 0,97.52213 78.5130304,176.03516 176.0351514,176.03516 H 508.00372 V 885.02335 h -23.09375 a 59.362316,59.362316 0 0 1 -49.99805,27.36133 59.362316,59.362316 0 0 1 -59.36328,-59.36328 59.362316,59.362316 0 0 1 59.36328,-59.36328 59.362316,59.362316 0 0 1 49.99805,27.36133 h 23.09375 V 515.9296 H 202.97637 v -34.94922 a 59.362316,59.362316 0 0 0 27.29883,-49.95898 59.362316,59.362316 0 0 0 -59.36328,-59.36328 59.362316,59.362316 0 0 0 -59.36328,59.36328 59.362316,59.362316 0 0 0 27.29883,49.95898 V 515.9296 H 5.8201286 Z"
       style="display:inline;fill:url(#linearGradient17);fill-rule:evenodd;stroke:#cccccc;stroke-width:9.8178;stroke-linejoin:round"
       id="path15-2-9" />
  </g>
  <g
     inkscape:groupmode="layer"
     id="layer4"
     inkscape:label="devices">
    <g
       id="g102"
       transform="matrix(1.102137,0,0,1.603482,211.94861,-14.729222)">
      <g
         sodipodi:type="inkscape:box3d"
         id="g47"
         style="fill:#21273f;fill-opacity:1;stroke:#5c7df9;stroke-width:8;stroke-linecap:round;stroke-linejoin:round;stroke-dasharray:none;stroke-opacity:1;paint-order:normal"
         inkscape:perspectiveID="#perspective47"
         inkscape:corner0="0.080994905 : 0.25366788 : 0 : 1"
         inkscape:corner7="-0.12822853 : 0.17122838 : 0.11810135 : 1">
        <path
           sodipodi:type="inkscape:box3dside"
           id="path52"
           style="fill:#21273f;fill-opacity:1;fill-rule:evenodd;stroke:#5c7df9;stroke-linejoin:round;stroke-opacity:1;paint-order:normal"
           inkscape:box3dsidetype="11"
           d="m 468.81094,462.88976 h 222.65718 l -0.97755,56.13573 H 467.83339 Z"
           points="691.46812,462.88976 690.49057,519.02549 467.83339,519.02549 468.81094,462.88976 " />
        <path
           sodipodi:type="inkscape:box3dside"
           id="path47"
           style="fill:#21273f;fill-opacity:1;fill-rule:evenodd;stroke:#5c7df9;stroke-linejoin:round;stroke-opacity:1;paint-order:normal"
           inkscape:box3dsidetype="6"
           d="m 351.77527,514.65296 -1.09301,62.76543 117.15113,-58.3929 0.97755,-56.13573 z"
           points="350.68226,577.41839 467.83339,519.02549 468.81094,462.88976 351.77527,514.65296 " />
        <path
           sodipodi:type="inkscape:box3dside"
           id="path51"
           style="fill:#21273f;fill-opacity:1;fill-rule:evenodd;stroke:#5c7df9;stroke-linejoin:round;stroke-opacity:1;paint-order:normal"
           inkscape:box3dsidetype="13"
           d="m 350.68226,577.41839 h 248.95329 l 90.85502,-58.3929 H 467.83339 Z"
           points="599.63555,577.41839 690.49057,519.02549 467.83339,519.02549 350.68226,577.41839 " />
        <path
           sodipodi:type="inkscape:box3dside"
           id="path48"
           style="fill:#21273f;fill-opacity:1;fill-rule:evenodd;stroke:#5c7df9;stroke-linejoin:round;stroke-opacity:1;paint-order:normal"
           inkscape:box3dsidetype="5"
           d="m 351.77527,514.65296 h 248.95329 l 90.73956,-51.7632 H 468.81094 Z"
           points="600.72856,514.65296 691.46812,462.88976 468.81094,462.88976 351.77527,514.65296 " />
        <path
           sodipodi:type="inkscape:box3dside"
           id="path50"
           style="fill:#21273f;fill-opacity:1;fill-rule:evenodd;stroke:#5c7df9;stroke-linejoin:round;stroke-opacity:1;paint-order:normal"
           inkscape:box3dsidetype="14"
           d="m 600.72856,514.65296 -1.09301,62.76543 90.85502,-58.3929 0.97755,-56.13573 z"
           points="599.63555,577.41839 690.49057,519.02549 691.46812,462.88976 600.72856,514.65296 " />
        <path
           sodipodi:type="inkscape:box3dside"
           id="path49"
           style="fill:#21273f;fill-opacity:1;fill-rule:evenodd;stroke:#5c7df9;stroke-linejoin:round;stroke-opacity:1;paint-order:normal"
           inkscape:box3dsidetype="3"
           d="m 351.77527,514.65296 h 248.95329 l -1.09301,62.76543 H 350.68226 Z"
           points="600.72856,514.65296 599.63555,577.41839 350.68226,577.41839 351.77527,514.65296 " />
      </g>
      <rect
         style="fill:#46d91f;fill-opacity:1;fill-rule:evenodd;stroke-width:0.77755"
         id="rect52"
         width="16"
         height="16"
         x="367.83981"
         y="527.29175"
         inkscape:tile-cx="367.83981"
         inkscape:tile-cy="535.29175"
         inkscape:tile-w="16"
         inkscape:tile-h="16"
         inkscape:tile-x0="359.83981"
         inkscape:tile-y0="527.29175" />
      <use
         x="0"
         y="0"
         inkscape:tiled-clone-of="#rect52"
         xlink:href="#rect52"
         id="use71" />
      <use
         x="0"
         y="0"
         inkscape:tiled-clone-of="#rect52"
         xlink:href="#rect52"
         transform="translate(0,19.84)"
         id="use72" />
      <use
         x="0"
         y="0"
         inkscape:tiled-clone-of="#rect52"
         xlink:href="#rect52"
         transform="translate(19.84)"
         id="use73" />
      <use
         x="0"
         y="0"
         inkscape:tiled-clone-of="#rect52"
         xlink:href="#rect52"
         transform="translate(19.84,19.84)"
         id="use74" />
      <use
         x="0"
         y="0"
         inkscape:tiled-clone-of="#rect52"
         xlink:href="#rect52"
         transform="translate(39.68)"
         id="use75" />
      <use
         x="0"
         y="0"
         inkscape:tiled-clone-of="#rect52"
         xlink:href="#rect52"
         transform="translate(39.68,19.84)"
         id="use76" />
      <use
         x="0"
         y="0"
         inkscape:tiled-clone-of="#rect52"
         xlink:href="#rect52"
         transform="translate(59.52)"
         id="use77" />
      <use
         x="0"
         y="0"
         inkscape:tiled-clone-of="#rect52"
         xlink:href="#rect52"
         transform="translate(59.52,19.84)"
         id="use78" />
      <use
         x="0"
         y="0"
         inkscape:tiled-clone-of="#rect52"
         xlink:href="#rect52"
         transform="translate(79.36)"
         id="use79" />
      <use
         x="0"
         y="0"
         inkscape:tiled-clone-of="#rect52"
         xlink:href="#rect52"
         transform="translate(79.36,19.84)"
         id="use80" />
      <use
         x="0"
         y="0"
         inkscape:tiled-clone-of="#rect52"
         xlink:href="#rect52"
         transform="translate(99.2)"
         id="use81" />
      <use
         x="0"
         y="0"
         inkscape:tiled-clone-of="#rect52"
         xlink:href="#rect52"
         transform="translate(99.2,19.84)"
         id="use82" />
      <use
         x="0"
         y="0"
         inkscape:tiled-clone-of="#rect52"
         xlink:href="#rect52"
         transform="translate(119.04)"
         id="use83" />
      <use
         x="0"
         y="0"
         inkscape:tiled-clone-of="#rect52"
         xlink:href="#rect52"
         transform="translate(119.04,19.84)"
         id="use84" />
      <use
         x="0"
         y="0"
         inkscape:tiled-clone-of="#rect52"
         xlink:href="#rect52"
         transform="translate(138.88)"
         id="use85" />
      <use
         x="0"
         y="0"
         inkscape:tiled-clone-of="#rect52"
         xlink:href="#rect52"
         transform="translate(138.88,19.84)"
         id="use86" />
      <use
         x="0"
         y="0"
         inkscape:tiled-clone-of="#rect52"
         xlink:href="#rect52"
         transform="translate(158.72)"
         id="use87" />
      <use
         x="0"
         y="0"
         inkscape:tiled-clone-of="#rect52"
         xlink:href="#rect52"
         transform="translate(158.72,19.84)"
         id="use88" />
      <use
         x="0"
         y="0"
         inkscape:tiled-clone-of="#rect52"
         xlink:href="#rect52"
         transform="translate(178.56)"
         id="use89" />
      <use
         x="0"
         y="0"
         inkscape:tiled-clone-of="#rect52"
         xlink:href="#rect52"
         transform="translate(178.56,19.84)"
         id="use90" />
      <use
         x="0"
         y="0"
         inkscape:tiled-clone-of="#rect52"
         xlink:href="#rect52"
         transform="translate(198.4)"
         id="use91" />
      <use
         x="0"
         y="0"
         inkscape:tiled-clone-of="#rect52"
         xlink:href="#rect52"
         transform="translate(198.4,19.84)"
         id="use92" />
    </g>
    <g
       id="g117"
       transform="matrix(1.0571086,0,0,1.1186992,43.39786,-24.164759)">
      <g
         sodipodi:type="inkscape:box3d"
         id="g47-3"
         style="fill:#21273f;fill-opacity:1;stroke:#5c7df9;stroke-width:8;stroke-linecap:round;stroke-linejoin:round;stroke-dasharray:none;stroke-opacity:1;paint-order:normal"
         inkscape:perspectiveID="#perspective47-7"
         inkscape:corner0="0.083466415 : 0.25366788 : 0 : 1"
         inkscape:corner7="-0.12822853 : 0.22637304 : 0.11810135 : 1">
        <path
           sodipodi:type="inkscape:box3dside"
           id="path52-0"
           style="fill:#21273f;fill-opacity:1;fill-rule:evenodd;stroke:#5c7df9;stroke-linejoin:round;stroke-opacity:1;paint-order:normal"
           inkscape:box3dsidetype="11"
           d="M 50.610761,267.60692 H 275.89816 l -0.32365,18.58594 -225.287406,0 z"
           points="275.89816,267.60692 275.57451,286.19286 50.287104,286.19286 50.610761,267.60692 " />
        <path
           sodipodi:type="inkscape:box3dside"
           id="path50-2"
           style="fill:#21273f;fill-opacity:1;fill-rule:evenodd;stroke:#5c7df9;stroke-linejoin:round;stroke-opacity:1;paint-order:normal"
           inkscape:box3dsidetype="14"
           d="m 415.52858,322.87117 -0.36189,20.78096 -139.59218,-57.45927 0.32365,-18.58594 z"
           points="415.16669,343.65213 275.57451,286.19286 275.89816,267.60692 415.52858,322.87117 " />
        <path
           sodipodi:type="inkscape:box3dside"
           id="path51-0"
           style="fill:#21273f;fill-opacity:1;fill-rule:evenodd;stroke:#5c7df9;stroke-linejoin:round;stroke-opacity:1;paint-order:normal"
           inkscape:box3dsidetype="13"
           d="m 163.27255,343.65213 h 251.89414 l -139.59218,-57.45927 -225.287406,0 z"
           points="415.16669,343.65213 275.57451,286.19286 50.287104,286.19286 163.27255,343.65213 " />
        <path
           sodipodi:type="inkscape:box3dside"
           id="path47-3"
           style="fill:#21273f;fill-opacity:1;fill-rule:evenodd;stroke:#5c7df9;stroke-linejoin:round;stroke-opacity:1;paint-order:normal"
           inkscape:box3dsidetype="6"
           d="m 163.63443,322.87117 -0.36188,20.78096 -112.985446,-57.45927 0.323657,-18.58594 z"
           points="163.27255,343.65213 50.287104,286.19286 50.610761,267.60692 163.63443,322.87117 " />
        <path
           sodipodi:type="inkscape:box3dside"
           id="path49-5"
           style="fill:#21273f;fill-opacity:1;fill-rule:evenodd;stroke:#5c7df9;stroke-linejoin:round;stroke-opacity:1;paint-order:normal"
           inkscape:box3dsidetype="3"
           d="m 163.63443,322.87117 251.89415,0 -0.36189,20.78096 H 163.27255 Z"
           points="415.52858,322.87117 415.16669,343.65213 163.27255,343.65213 163.63443,322.87117 " />
        <path
           sodipodi:type="inkscape:box3dside"
           id="path48-9"
           style="fill:#21273f;fill-opacity:1;fill-rule:evenodd;stroke:#5c7df9;stroke-linejoin:round;stroke-opacity:1;paint-order:normal"
           inkscape:box3dsidetype="5"
           d="m 163.63443,322.87117 251.89415,0 -139.63042,-55.26425 H 50.610761 Z"
           points="415.52858,322.87117 275.89816,267.60692 50.610761,267.60692 163.63443,322.87117 " />
      </g>
      <g
         sodipodi:type="inkscape:box3d"
         id="g47-3-1"
         style="fill:#5c7df9;fill-opacity:1;stroke:#21273f;stroke-width:8;stroke-linecap:round;stroke-linejoin:round;stroke-dasharray:none;stroke-opacity:1;paint-order:normal"
         inkscape:perspectiveID="#perspective47-7-0"
         inkscape:corner0="0.085794837 : 0.45683241 : 0 : 1"
         inkscape:corner7="-0.093138299 : 0.21476364 : 0.0084039099 : 1">
        <path
           sodipodi:type="inkscape:box3dside"
           id="path52-0-0"
           style="fill:#5c7df9;fill-opacity:1;fill-rule:evenodd;stroke:#21273f;stroke-linejoin:round;stroke-opacity:1;paint-order:normal"
           inkscape:box3dsidetype="11"
           d="M 45.526045,71.492579 H 256.6628 L 253.48014,254.25606 H 42.343384 Z"
           points="256.6628,71.492579 253.48014,254.25606 42.343384,254.25606 45.526045,71.492579 " />
        <path
           sodipodi:type="inkscape:box3dside"
           id="path50-2-8"
           style="fill:#5c7df9;fill-opacity:1;fill-rule:evenodd;stroke:#21273f;stroke-linejoin:round;stroke-opacity:1;paint-order:normal"
           inkscape:box3dsidetype="14"
           d="m 267.35402,74.56381 -3.20941,184.29941 -10.66447,-4.60716 3.18266,-182.763481 z"
           points="264.14461,258.86322 253.48014,254.25606 256.6628,71.492579 267.35402,74.56381 " />
        <path
           sodipodi:type="inkscape:box3dside"
           id="path51-0-5"
           style="fill:#5c7df9;fill-opacity:1;fill-rule:evenodd;stroke:#21273f;stroke-linejoin:round;stroke-opacity:1;paint-order:normal"
           inkscape:box3dsidetype="13"
           d="M 51.233484,258.86322 H 264.14461 l -10.66447,-4.60716 H 42.343384 Z"
           points="264.14461,258.86322 253.48014,254.25606 42.343384,254.25606 51.233484,258.86322 " />
        <path
           sodipodi:type="inkscape:box3dside"
           id="path47-3-0"
           style="fill:#5c7df9;fill-opacity:1;fill-rule:evenodd;stroke:#21273f;stroke-linejoin:round;stroke-opacity:1;paint-order:normal"
           inkscape:box3dsidetype="6"
           d="m 54.442892,74.56381 -3.209408,184.29941 -8.8901,-4.60716 3.182661,-182.763481 z"
           points="51.233484,258.86322 42.343384,254.25606 45.526045,71.492579 54.442892,74.56381 " />
        <path
           sodipodi:type="inkscape:box3dside"
           id="path49-5-6"
           style="fill:#5c7df9;fill-opacity:1;fill-rule:evenodd;stroke:#21273f;stroke-linejoin:round;stroke-opacity:1;paint-order:normal"
           inkscape:box3dsidetype="3"
           d="M 54.442892,74.56381 H 267.35402 l -3.20941,184.29941 H 51.233484 Z"
           points="267.35402,74.56381 264.14461,258.86322 51.233484,258.86322 54.442892,74.56381 " />
        <path
           sodipodi:type="inkscape:box3dside"
           id="path48-9-4"
           style="fill:#5c7df9;fill-opacity:1;fill-rule:evenodd;stroke:#21273f;stroke-linejoin:round;stroke-opacity:1;paint-order:normal"
           inkscape:box3dsidetype="5"
           d="M 54.442892,74.56381 H 267.35402 L 256.6628,71.492579 H 45.526045 Z"
           points="267.35402,74.56381 256.6628,71.492579 45.526045,71.492579 54.442892,74.56381 " />
      </g>
    </g>
    <g
       id="g116"
       transform="matrix(0.96758166,0,0,0.97050644,-551.75501,460.79813)">
      <circle
         style="fill:#21273f;fill-opacity:1;stroke:#5c7df9;stroke-width:8;stroke-linecap:round;stroke-linejoin:round;stroke-dasharray:none;stroke-opacity:1;paint-order:normal"
         id="path113"
         cx="830.85046"
         cy="256.3262"
         r="128" />
      <circle
         style="fill:#21273f;fill-opacity:1;stroke:#5c7df9;stroke-width:8;stroke-linecap:round;stroke-linejoin:round;stroke-dasharray:none;stroke-opacity:1;paint-order:normal"
         id="path113-9"
         cx="830.49127"
         cy="257.24564"
         r="128" />
      <g
         id="g115"
         transform="rotate(7.5742098,823.95397,225.30217)">
        <path
           id="path114"
           style="fill:#21273f;stroke:#5c7df9;stroke-width:16;stroke-linecap:round;stroke-linejoin:round"
           d="m 848.16986,154.71495 c -27.04192,-6.05069 30.92727,-0.19531 56.63196,27.13301 18.98555,20.18477 31.42427,47.68756 31.42427,75.39813 0,27.71058 -10.09736,53.76684 -20.92816,63.79717 -10.05236,9.30941 -37.23414,29.59355 -22.93389,19.39903 14.38316,-10.25362 29.42774,-26.39493 36.72822,-42.60097 8.18406,-18.1675 7.24563,-17.85649 7.24563,-40.59523 0,-27.71057 -11.40566,-55.25136 -31,-74.8457 -19.59434,-19.59434 -30.00989,-21.60874 -57.16803,-27.68544 z"
           sodipodi:nodetypes="sssssssss" />
        <path
           id="rect115"
           style="fill:#5c7df9;fill-rule:evenodd"
           d="m 871.67654,338.04962 13.08285,-26.44816 16.18579,33.89915 -39.88136,19.0421 z"
           sodipodi:nodetypes="ccccc" />
      </g>
      <g
         id="g115-9"
         transform="rotate(-172.4826,832.18247,257.78498)">
        <path
           id="path114-1"
           style="fill:#21273f;stroke:#5c7df9;stroke-width:16;stroke-linecap:round;stroke-linejoin:round"
           d="m 848.16986,154.71495 c -27.04192,-6.05069 30.92727,-0.19531 56.63196,27.13301 18.98555,20.18477 31.42427,47.68756 31.42427,75.39813 0,27.71058 -10.09736,53.76684 -20.92816,63.79717 -10.05236,9.30941 -37.23414,29.59355 -22.93389,19.39903 14.38316,-10.25362 29.42774,-26.39493 36.72822,-42.60097 8.18406,-18.1675 7.24563,-17.85649 7.24563,-40.59523 0,-27.71057 -11.40566,-55.25136 -31,-74.8457 -19.59434,-19.59434 -30.00989,-21.60874 -57.16803,-27.68544 z"
           sodipodi:nodetypes="sssssssss" />
        <path
           id="rect115-9"
           style="fill:#5c7df9;fill-rule:evenodd"
           d="m 871.67654,338.04962 13.08285,-26.44816 16.18579,33.89915 -39.88136,19.0421 z"
           sodipodi:nodetypes="ccccc" />
      </g>
      <circle
         style="fill:#46d91f;fill-opacity:1;stroke:none;stroke-width:16;stroke-linecap:round;stroke-linejoin:round;stroke-dasharray:none;stroke-opacity:1;paint-order:normal"
         id="path115"
         cx="830.57422"
         cy="257.8403"
         r="32" />
    </g>
    <g
       id="g118"
       transform="matrix(1.1025922,0,0,1.1187992,-107.75726,-15.240108)">
      <g
         sodipodi:type="inkscape:box3d"
         id="g47-6"
         style="fill:#21273f;fill-opacity:1;stroke:#5c7df9;stroke-width:8;stroke-linecap:round;stroke-linejoin:round;stroke-dasharray:none;stroke-opacity:1;paint-order:normal"
         inkscape:perspectiveID="#perspective47-3"
         inkscape:corner0="0.080994905 : 0.53809822 : 0 : 1"
         inkscape:corner7="-0.025706231 : 0.17122838 : 0.11810135 : 1">
        <path
           sodipodi:type="inkscape:box3dside"
           id="path52-6"
           style="fill:#21273f;fill-opacity:1;fill-rule:evenodd;stroke:#5c7df9;stroke-linejoin:round;stroke-opacity:1;paint-order:normal"
           inkscape:box3dsidetype="11"
           d="M 841.09706,92.553454 H 954.64923 L 950.29895,342.36702 H 836.74678 Z"
           points="954.64923,92.553454 950.29895,342.36702 836.74678,342.36702 841.09706,92.553454 " />
        <path
           sodipodi:type="inkscape:box3dside"
           id="path47-4"
           style="fill:#21273f;fill-opacity:1;fill-rule:evenodd;stroke:#5c7df9;stroke-linejoin:round;stroke-opacity:1;paint-order:normal"
           inkscape:box3dsidetype="6"
           d="m 724.45969,121.44303 -4.86405,279.31688 117.15114,-58.39289 4.35028,-249.813566 z"
           points="719.59564,400.75991 836.74678,342.36702 841.09706,92.553454 724.45969,121.44303 " />
        <path
           sodipodi:type="inkscape:box3dside"
           id="path51-00"
           style="fill:#21273f;fill-opacity:1;fill-rule:evenodd;stroke:#5c7df9;stroke-linejoin:round;stroke-opacity:1;paint-order:normal"
           inkscape:box3dsidetype="13"
           d="M 719.59564,400.75991 H 846.55847 L 950.29895,342.36702 H 836.74678 Z"
           points="846.55847,400.75991 950.29895,342.36702 836.74678,342.36702 719.59564,400.75991 " />
        <path
           sodipodi:type="inkscape:box3dside"
           id="path48-4"
           style="fill:#21273f;fill-opacity:1;fill-rule:evenodd;stroke:#5c7df9;stroke-linejoin:round;stroke-opacity:1;paint-order:normal"
           inkscape:box3dsidetype="5"
           d="M 724.45969,121.44303 H 851.42252 L 954.64923,92.553454 H 841.09706 Z"
           points="851.42252,121.44303 954.64923,92.553454 841.09706,92.553454 724.45969,121.44303 " />
        <path
           sodipodi:type="inkscape:box3dside"
           id="path50-6"
           style="fill:#21273f;fill-opacity:1;fill-rule:evenodd;stroke:#5c7df9;stroke-linejoin:round;stroke-opacity:1;paint-order:normal"
           inkscape:box3dsidetype="14"
           d="m 851.42252,121.44303 -4.86405,279.31688 103.74048,-58.39289 4.35028,-249.813566 z"
           points="846.55847,400.75991 950.29895,342.36702 954.64923,92.553454 851.42252,121.44303 " />
        <path
           sodipodi:type="inkscape:box3dside"
           id="path49-2"
           style="fill:#21273f;fill-opacity:1;fill-rule:evenodd;stroke:#5c7df9;stroke-linejoin:round;stroke-opacity:1;paint-order:normal"
           inkscape:box3dsidetype="3"
           d="m 724.45969,121.44303 h 126.96283 l -4.86405,279.31688 H 719.59564 Z"
           points="851.42252,121.44303 846.55847,400.75991 719.59564,400.75991 724.45969,121.44303 " />
      </g>
      <rect
         style="fill:#46d91f;fill-opacity:1;fill-rule:evenodd;stroke-width:0.77755"
         id="use74-9"
         width="16"
         height="16"
         x="814.04089"
         y="252.03958"
         inkscape:tile-x0="359.83981"
         inkscape:tile-y0="527.29175" />
      <rect
         style="fill:none;fill-rule:evenodd;stroke:#5c7df9;stroke-width:8;stroke-dasharray:none;stroke-opacity:1"
         id="rect117"
         width="90.598053"
         height="57.452427"
         x="742.4621"
         y="141.42136" />
      <rect
         style="fill:none;fill-rule:evenodd;stroke:#5c7df9;stroke-width:8;stroke-dasharray:none;stroke-opacity:1"
         id="rect117-1"
         width="90.598053"
         height="57.452427"
         x="738.79028"
         y="320.63107" />
    </g>
  </g>
</svg>
